<svg id="Capa_1" data-name="Capa 1" xmlns="http://www.w3.org/2000/svg" viewBox="0 0 323.28 323.28"><defs><style>.cls-1{fill:#fff;}.cls-2{fill:#0b7064;}.cls-3{fill:#921a14;}.cls-4{fill:#02433d;}.cls-5,.cls-6{fill:none;stroke-miterlimit:10;}.cls-5{stroke:#1d1d1b;stroke-width:3px;}.cls-6{stroke:#921a14;stroke-width:20px;}</style></defs><path class="cls-1" d="M591.44,344.43a15.28,15.28,0,0,0-9-6.89c-3.84-.87-8.15-.69-11.56,1.51a16.31,16.31,0,0,0-6.89,9l-1.89,5.77a15,15,0,0,0,10.48,18.45c3.84.87,8.15.68,11.56-1.51a16.35,16.35,0,0,0,6.89-9Q592,358.88,593,356A15.27,15.27,0,0,0,591.44,344.43Z" transform="translate(-517.71 -234.6)"/><circle class="cls-1" cx="161.64" cy="161.64" r="151.64"/><path class="cls-2" d="M736.57,318.06c49.7,26.11,26.93,98.69,5.75,155.77-18.37,64.71-132,63.75-126.7-42.65-22.42,5.54-33.44-39-11-44.58-8.87-98.83,71.46-94.53,120.63-73.87C729.24,314.41,733,316.21,736.57,318.06ZM724,435.33c21-.53,17.91-39.23-3.67-38.19S703,435.85,724,435.33Zm-23.62,51.59c49.65-29.22-67.46-33.66-30.56,0,14.5-4.48,12.83,10,15.34,10.86S690.93,486.66,700.34,486.92Zm0-36.89c.38-4.07-3.61-9.13-9.39-15.74-5.78,6.61-9.77,11.67-9.39,15.74s8.65,4.84,9.05-.88C691,454.87,699.94,454.1,700.32,450Zm-24.1-30.72c10-20.55-27.2-34.75-37.4-15S666.2,439.86,676.22,419.31Z" transform="translate(-517.71 -234.6)"/><path class="cls-1" d="M720.29,397.14c21.58-1,24.67,37.66,3.67,38.19S698.71,398.18,720.29,397.14Z" transform="translate(-517.71 -234.6)"/><path class="cls-3" d="M669.78,486.94c-36.9-33.68,80.21-29.24,30.56,0-9.41-.26-12.7,11.72-15.22,10.88S684.28,482.46,669.78,486.94Z" transform="translate(-517.71 -234.6)"/><path class="cls-4" d="M690.93,434.29c5.78,6.61,9.77,11.67,9.39,15.74s-9.33,4.84-9.73-.88c-.4,5.72-8.67,5-9.05.88S685.15,440.9,690.93,434.29Z" transform="translate(-517.71 -234.6)"/><path class="cls-1" d="M638.82,404.34c10.2-19.78,47.41-5.58,37.4,15S628.62,424.11,638.82,404.34Z" transform="translate(-517.71 -234.6)"/><path class="cls-5" d="M615.62,431.18c-5.27,106.4,108.33,107.36,126.7,42.65,21.18-57.08,43.95-129.66-5.75-155.77-3.53-1.85-7.33-3.65-11.34-5.33-49.17-20.66-129.5-25-120.63,73.87C582.18,392.14,593.2,436.72,615.62,431.18Z" transform="translate(-517.71 -234.6)"/><path class="cls-5" d="M638.82,404.34c10.2-19.78,47.41-5.58,37.4,15S628.62,424.11,638.82,404.34Z" transform="translate(-517.71 -234.6)"/><line class="cls-5" x1="207.51" y1="78.13" x2="218.85" y2="54.86"/><line class="cls-5" x1="168.45" y1="67.29" x2="166.44" y2="40.16"/><line class="cls-5" x1="128.9" y1="69.16" x2="118.48" y2="44"/><path class="cls-5" d="M724,435.33c-21,.52-25.25-37.15-3.67-38.19S745,434.8,724,435.33Z" transform="translate(-517.71 -234.6)"/><path class="cls-5" d="M669.78,486.94c14.5-4.48,12.83,10,15.34,10.86s5.81-11.14,15.22-10.88C750,457.7,632.88,453.26,669.78,486.94Z" transform="translate(-517.71 -234.6)"/><path class="cls-5" d="M690.59,449.15c.4,5.72,9.35,5,9.73.88s-3.61-9.13-9.39-15.74c-5.78,6.61-9.77,11.67-9.39,15.74S690.19,454.87,690.59,449.15Z" transform="translate(-517.71 -234.6)"/><circle class="cls-6" cx="161.64" cy="161.64" r="151.64"/><line class="cls-6" x1="70.25" y1="282.65" x2="280.69" y2="67.72"/></svg>